<?xml version="1.0" encoding="UTF-8"?><svg id="Layer_2" xmlns="http://www.w3.org/2000/svg" viewBox="0 0 49.22 49.22"><defs><style>.cls-1{fill:#0a6e3d;}.cls-2{fill:#0f9d59;}.cls-3{fill:#fff;}.cls-4{fill:#099b59;}.cls-5{fill:#4284f4;}</style></defs><g id="Layer_1-2"><g id="Symbol"><path class="cls-3" d="M12.39,10.14l4.71-4.72,14.79-.22,7.72,7.72,1.7,21.31s-8.82,9.46-9.3,9.65c-1.86.74-15.22-.24-15.22-.24l-7.41-7.59,3.01-25.92Z"/><g id="Light_Color"><path class="cls-5" d="M13.98,30.36c4.28-5.29,10.21-12.65,13.55-16.88-1.13.04-2.26.08-3.39.11-.51.01-1.35.08-2.16.14-.89.07-1.74.13-2.34.15-.07,0-.13,0-.2,0-2.75,0-5.69-1.29-7.06-3.73L1.46,21.07c-1.95,1.94-1.95,5.13,0,7.07l7.92,7.92c.9-1.12,2.36-2.93,4.6-5.7Z"/><path class="cls-5" d="M22.26,5.78c3.24-.08,6.46-.27,9.63-.57l-3.75-3.75c-1.95-1.95-5.13-1.95-7.07,0l-3.97,3.97c1.57.22,3.36.4,5.16.35Z"/></g><path id="Dark_Color" class="cls-2" d="M47.76,21.07l-8.14-8.14c-.64.81-1.39,1.69-2.23,2.66-.61.7-11.74,14.35-16.71,20.45,1.96-.01,3.92-.04,5.88-.09l3.21-.08c4.57-.11,10.91-.97,11.92-1.86l1.69-1.49,4.38-4.38c1.95-1.95,1.95-5.13,0-7.07Z"/><g id="Shadow"><path class="cls-4" d="M29.38,43.96c-.44.01-.91.02-1.38.02-1.87,0-3.72-.09-5.51-.17-1.12-.05-2.27-.1-3.41-.14h-.04c-.2-.01-.43-.02-.68-.02-.3,0-.6,0-.88.01-.16,0-.31.01-.47.02l4.07,4.07c1.95,1.94,5.13,1.94,7.07,0l3.95-3.95c-.89.06-1.81.13-2.71.15Z"/><path class="cls-1" d="M27.08,35.94c4.6-5.64,13.01-15.95,15.98-19.57l-3.45-3.44c-.64.81-1.39,1.69-2.23,2.66-.61.7-11.74,14.35-16.71,20.45,1.96-.01,3.92-.04,5.88-.09h.53Z"/></g></g></g></svg>