<?xml version="1.0" encoding="UTF-8"?><svg id="Layer_2" xmlns="http://www.w3.org/2000/svg" viewBox="0 0 223.72 49.22"><defs><style>.cls-1{fill:#75787e;}.cls-2{fill:#58595b;}.cls-3{fill:#6d6e70;}.cls-4{fill:#929497;}</style></defs><g id="Layer_1-2"><path class="cls-1" d="M82.82,21.42c-.04-3.02-1.07-5.85-4.57-5.85-4.49,0-4.92,5.89-4.92,9.19,0,3.74.44,8.55,5.24,8.55,2.98,0,4.37-2.5,4.72-5.13l6.2.4c-.67,6.25-4.96,9.95-11.24,9.95-8.1,0-12.03-6.61-12.03-14.05s4.05-14.05,12.23-14.05c6.83,0,10.32,3.98,11.04,10.55l-6.67.44Z"/><path class="cls-1" d="M110.82,28.19c0,5.77-3.77,10.35-9.73,10.35s-9.57-4.7-9.57-10.55,3.41-10.46,9.57-10.46,9.73,4.7,9.73,10.67ZM97.79,27.39c0,2.31-.04,7.24,3.3,7.24s3.45-3.98,3.45-6.41c0-1.59-.08-3.5-.64-5.01-.48-1.31-1.43-1.83-2.78-1.83-3.14,0-3.34,3.7-3.34,6.01Z"/><path class="cls-1" d="M113.28,17.92h5.52v3.42h.08c1.19-2.58,2.86-3.82,5.8-3.82,1.9,0,3.77.6,4.96,2.23,1.11,1.51,1.11,4.06,1.11,5.89v12.5h-5.84v-10.87c0-2.07.28-5.09-2.66-5.09-1.03,0-1.98.6-2.46,1.51-.59,1.15-.67,2.31-.67,3.58v10.87h-5.84v-20.22Z"/><path class="cls-1" d="M145.74,22.54h-4.33v8.04c0,2.67.2,3.26,2.7,3.26.51,0,1.27-.08,1.95-.16v4.41c-1.15.28-2.58.44-3.65.44-1.67,0-3.89-.24-5.2-1.31-1.63-1.35-1.63-3.78-1.63-5.77v-8.91h-3.29v-4.66h3.53l.52-5.93,5.08-.4v6.33h4.33v4.66Z"/><path class="cls-1" d="M160.73,38.14c-.24-1.03-.32-2.11-.28-3.14-1.67,2.39-3.41,3.54-6.43,3.54-3.57,0-6.35-1.91-6.35-5.73,0-2.99,1.86-5.02,4.52-6.01,2.3-.88,5.52-1.04,7.98-1.27v-.48c0-.88.08-1.91-.52-2.67-.52-.68-1.51-.96-2.38-.96-1.87,0-3.49.96-3.49,2.95l-5.52-.52c.6-4.89,5.36-6.33,9.61-6.33,2.06,0,4.77.48,6.39,1.83,2.06,1.67,1.87,3.9,1.87,6.33v9.43c0,1.03.08,2.03.4,3.02h-5.8ZM160.17,28.47c-2.22.24-6.32.76-6.32,3.7,0,1.59.95,2.67,2.58,2.67,1.19,0,2.26-.64,2.94-1.67.83-1.27.79-2.47.79-3.9v-.8Z"/><polygon class="cls-1" points="183.38 21.66 174.41 33.8 183.78 33.8 183.78 38.14 167.9 38.14 167.9 33.8 176.79 21.98 168.65 21.98 168.65 17.92 183.38 17.92 183.38 21.66"/><path class="cls-1" d="M190.77,29.02l-.04.99c0,2.39,1.35,4.34,3.89,4.34,1.79,0,3.57-1.32,3.57-3.18l5.4.4c0,1-2.34,6.97-9.17,6.97-6.03,0-9.97-4.22-9.97-10.23s3.54-10.78,9.81-10.78c2.82,0,5.72,1.27,7.38,3.58,1.67,2.31,2.1,5.17,2.06,7.92h-12.94ZM197.87,25.56c-.12-2.19-.83-4.22-3.37-4.22s-3.57,1.91-3.77,4.22h7.15Z"/><path class="cls-1" d="M206.25,17.92h5.52v3.42h.08c1.19-2.58,2.86-3.82,5.8-3.82,1.9,0,3.77.6,4.96,2.23,1.11,1.51,1.11,4.06,1.11,5.89v12.5h-5.84v-10.87c0-2.07.28-5.09-2.66-5.09-1.03,0-1.99.6-2.46,1.51-.59,1.15-.68,2.31-.68,3.58v10.87h-5.83v-20.22Z"/><g id="Symbol"><g id="Light_Color"><path class="cls-4" d="M13.98,30.36c4.28-5.29,10.21-12.65,13.55-16.88-1.13.04-2.26.08-3.39.11-.51.01-1.35.08-2.16.14-.89.07-1.74.13-2.34.15-.07,0-.13,0-.2,0-2.75,0-5.69-1.29-7.06-3.73L1.46,21.07c-1.95,1.94-1.95,5.13,0,7.07l7.92,7.92c.9-1.12,2.36-2.93,4.6-5.7Z"/><path class="cls-4" d="M22.26,5.78c3.24-.08,6.46-.27,9.63-.57l-3.75-3.75c-1.95-1.95-5.13-1.95-7.07,0l-3.97,3.97c1.57.22,3.36.4,5.16.35Z"/></g><path id="Dark_Color" class="cls-3" d="M47.76,21.07l-8.14-8.14c-.64.81-1.39,1.69-2.23,2.66-.61.7-11.74,14.35-16.71,20.45,1.96-.01,3.92-.04,5.88-.09l3.21-.08c4.57-.11,10.91-.97,11.92-1.86l1.69-1.49,4.38-4.38c1.95-1.95,1.95-5.13,0-7.07Z"/><g id="Shadow"><path class="cls-2" d="M29.38,43.96c-.44.01-.91.02-1.38.02-1.87,0-3.72-.09-5.51-.17-1.12-.05-2.27-.1-3.41-.14h-.04c-.2-.01-.43-.02-.68-.02-.3,0-.6,0-.88.01-.16,0-.31.01-.47.02l4.07,4.07c1.95,1.94,5.13,1.94,7.07,0l3.95-3.95c-.89.06-1.81.13-2.71.15Z"/><path class="cls-2" d="M27.08,35.94c4.6-5.64,13.01-15.95,15.98-19.57l-3.45-3.44c-.64.81-1.39,1.69-2.23,2.66-.61.7-11.74,14.35-16.71,20.45,1.96-.01,3.92-.04,5.88-.09h.53Z"/></g></g></g></svg>